Coordinates
version=1
nRows=19
nColumns=24
inDegrees=yes

Units are S.I. units (second, meters, Newtons, ...)
Angles are in degrees.

endheader
time	pelvis_tilt	pelvis_list	pelvis_rotation	pelvis_tx	pelvis_ty	pelvis_tz	hip_flexion_r	hip_adduction_r	hip_rotation_r	knee_angle_r	ankle_angle_r	subtalar_angle_r	mtp_angle_r	hip_flexion_l	hip_adduction_l	hip_rotation_l	knee_angle_l	ankle_angle_l	subtalar_angle_l	mtp_angle_l	lumbar_extension	lumbar_bending	lumbar_rotation
      0.01000000	     39.70208591	      1.16159966	     -0.92806585	      0.68520690	      1.07569750	     -0.33318709	     37.70842332	     -7.37169634	     -1.68570068	    -24.58983433	     -6.08731284	      0.00000000	      0.00000000	     26.86305688	    -15.28118063	     -4.92449492	    -68.24234758	    -14.80095629	      0.00000000	      0.00000000	      0.00000000	      0.00000000	      0.00000000
      0.02000000	     39.71202335	      1.16612816	     -0.92984911	      0.68518962	      1.07571855	     -0.33321363	     37.69904962	     -7.37537795	     -1.68348720	    -24.59770297	     -6.09240284	      0.00000000	      0.00000000	     26.85695671	    -15.27291300	     -4.92366998	    -68.24902771	    -14.80577411	      0.00000000	      0.00000000	      0.00000000	      0.00000000	      0.00000000
      0.03000000	     39.72171409	      1.17010177	     -0.93057397	      0.68517720	      1.07572875	     -0.33323436	     37.69008998	     -7.38006175	     -1.68140442	    -24.60388156	     -6.09909161	      0.00000000	      0.00000000	     26.84944312	    -15.26538186	     -4.92425087	    -68.25368065	    -14.81109333	      0.00000000	      0.00000000	      0.00000000	      0.00000000	      0.00000000
      0.04000000	     39.73048991	      1.17361771	     -0.93011897	      0.68516759	      1.07572931	     -0.33325265	     37.68169372	     -7.38564233	     -1.67957938	    -24.60785876	     -6.10752702	      0.00000000	      0.00000000	     26.84094384	    -15.25916622	     -4.92671605	    -68.25536943	    -14.81667357	      0.00000000	      0.00000000	      0.00000000	      0.00000000	      0.00000000
      0.05000000	     39.73773445	      1.17686496	     -0.92877261	      0.68515965	      1.07572955	     -0.33327001	     37.67402189	     -7.39177201	     -1.67816147	    -24.60933184	     -6.11749766	      0.00000000	      0.00000000	     26.83264537	    -15.25488024	     -4.93130475	    -68.25332774	    -14.82201673	      0.00000000	      0.00000000	      0.00000000	      0.00000000	      0.00000000
      0.06000000	     39.74319098	      1.17995502	     -0.92724055	      0.68515491	      1.07573830	     -0.33328311	     37.66737514	     -7.39772522	     -1.67723590	    -24.60841660	     -6.12829224	      0.00000000	      0.00000000	     26.82629089	    -15.25287486	     -4.93762815	    -68.24764405	    -14.82638381	      0.00000000	      0.00000000	      0.00000000	      0.00000000	      0.00000000
      0.07000000	     39.74680381	      1.18276948	     -0.92626520	      0.68515406	      1.07575291	     -0.33328743	     37.66242335	     -7.40242701	     -1.67675021	    -24.60557844	     -6.13885024	      0.00000000	      0.00000000	     26.82329193	    -15.25307614	     -4.94450314	    -68.23972082	    -14.82893930	      0.00000000	      0.00000000	      0.00000000	      0.00000000	      0.00000000
      0.08000000	     39.74817842	      1.18490840	     -0.92620492	      0.68515139	      1.07576097	     -0.33328315	     37.66020268	     -7.40484395	     -1.67647479	    -24.60145653	     -6.14810905	      0.00000000	      0.00000000	     26.82380294	    -15.25499698	     -4.95023415	    -68.23205891	    -14.82900228	      0.00000000	      0.00000000	      0.00000000	      0.00000000	      0.00000000
      0.09000000	     39.74661807	      1.18578395	     -0.92696921	      0.68514139	      1.07575353	     -0.33327477	     37.66168258	     -7.40455492	     -1.67602765	    -24.59676929	     -6.15534842	      0.00000000	      0.00000000	     26.82695218	    -15.25788987	     -4.95334075	    -68.22701388	    -14.82631092	      0.00000000	      0.00000000	      0.00000000	      0.00000000	      0.00000000
      0.10000000	     39.74200775	      1.18501620	     -0.92830708	      0.68513233	      1.07573445	     -0.33326762	     37.66719230	     -7.40196417	     -1.67503563	    -24.59227682	     -6.16034871	      0.00000000	      0.00000000	     26.83215428	    -15.26104659	     -4.95326492	    -68.22519219	    -14.82117727	      0.00000000	      0.00000000	      0.00000000	      0.00000000	      0.00000000
      0.11000000	     39.73511972	      1.18287478	     -0.93000211	      0.68513864	      1.07571403	     -0.33326548	     37.67623486	     -7.39797706	     -1.67338837	    -24.58864822	     -6.16332465	      0.00000000	      0.00000000	     26.83958971	    -15.26410528	     -4.95051315	    -68.22512462	    -14.81445708	      0.00000000	      0.00000000	      0.00000000	      0.00000000	      0.00000000
      0.12000000	     39.72686845	      1.18024554	     -0.93181208	      0.68515924	      1.07569721	     -0.33326692	     37.68781031	     -7.39349560	     -1.67138261	    -24.58624670	     -6.16473460	      0.00000000	      0.00000000	     26.84926947	    -15.26711482	     -4.94623866	    -68.22461213	    -14.80733727	      0.00000000	      0.00000000	      0.00000000	      0.00000000	      0.00000000
      0.13000000	     39.71782051	      1.17808196	     -0.93348058	      0.68517847	      1.07568372	     -0.33326493	     37.70081162	     -7.38908752	     -1.66959586	    -24.58506604	     -6.16508727	      0.00000000	      0.00000000	     26.86035382	    -15.27029847	     -4.94171611	    -68.22227330	    -14.80101257	      0.00000000	      0.00000000	      0.00000000	      0.00000000	      0.00000000
      0.14000000	     39.70841972	      1.17680219	     -0.93492444	      0.68518648	      1.07567357	     -0.33325370	     37.71412476	     -7.38493302	     -1.66855167	    -24.58493616	     -6.16481464	      0.00000000	      0.00000000	     26.87153380	    -15.27376556	     -4.93795793	    -68.21805452	    -14.79635383	      0.00000000	      0.00000000	      0.00000000	      0.00000000	      0.00000000
      0.15000000	     39.69931179	      1.17615124	     -0.93634339	      0.68518813	      1.07566726	     -0.33323455	     37.72659607	     -7.38096475	     -1.66840551	    -24.58578700	     -6.16423850	      0.00000000	      0.00000000	     26.88172759	    -15.27747012	     -4.93540237	    -68.21272669	    -14.79366447	      0.00000000	      0.00000000	      0.00000000	      0.00000000	      0.00000000
      0.16000000	     39.69134858	      1.17554549	     -0.93807294	      0.68519195	      1.07566407	     -0.33321364	     37.73714479	     -7.37706593	     -1.66886198	    -24.58771868	     -6.16362130	      0.00000000	      0.00000000	     26.89036671	    -15.28134132	     -4.93373386	    -68.20707252	    -14.79262576	      0.00000000	      0.00000000	      0.00000000	      0.00000000	      0.00000000
      0.17000000	     39.68528177	      1.17449341	     -0.94024954	      0.68519815	      1.07566153	     -0.33319620	     37.74500445	     -7.37324941	     -1.66940894	    -24.59084724	     -6.16323012	      0.00000000	      0.00000000	     26.89717013	    -15.28529842	     -4.93208487	    -68.20142808	    -14.79248376	      0.00000000	      0.00000000	      0.00000000	      0.00000000	      0.00000000
      0.18000000	     39.68151517	      1.17289263	     -0.94257180	      0.68520205	      1.07565835	     -0.33318366	     37.74988645	     -7.36975963	     -1.66977404	    -24.59507785	     -6.16334913	      0.00000000	      0.00000000	     26.90186046	    -15.28911264	     -4.92963509	    -68.19570373	    -14.79239028	      0.00000000	      0.00000000	      0.00000000	      0.00000000	      0.00000000
      0.19000000	     39.68006278	      1.17111867	     -0.94442156	      0.68520233	      1.07565573	     -0.33317369	     37.75187375	     -7.36711174	     -1.67031520	    -24.60002348	     -6.16423890	      0.00000000	      0.00000000	     26.90416855	    -15.29231571	     -4.92622247	    -68.18963811	    -14.79172647	      0.00000000	      0.00000000	      0.00000000	      0.00000000	      0.00000000
